<?xml version="1.0" encoding="UTF-8"?>
<svg version="1.1" xmlns="http://www.w3.org/2000/svg" width="500" height="499">
<path d="M0 0 C1.75834671 0.00589142 1.75834671 0.00589142 3.55221558 0.01190186 C21.92360457 0.09841718 39.37253645 1.10629221 57.25 5.5625 C58.21969727 5.79775391 59.18939453 6.03300781 60.18847656 6.27539062 C66.29473281 7.79411006 72.28324861 9.56793483 78.25 11.5625 C79.47251465 11.96855469 79.47251465 11.96855469 80.71972656 12.3828125 C91.42148039 15.99650137 101.49733149 20.39465305 111.48779297 25.64990234 C114.0454319 26.9744319 116.65131546 28.19586741 119.25 29.4375 C148.57148877 44.17749165 176.42697506 67.45325454 196.25 93.5625 C196.67200684 94.11341309 197.09401367 94.66432617 197.52880859 95.23193359 C206.67816059 107.22380272 214.88363596 119.78214392 221.94921875 133.1171875 C223.20858461 135.48464403 224.53554644 137.80220138 225.875 140.125 C230.33667901 148.15032039 233.15224723 156.94687511 236.25 165.5625 C236.55035156 166.36598877 236.85070312 167.16947754 237.16015625 167.99731445 C257.79197749 223.59242403 255.98743173 291.24248986 232.25 345.5625 C231.78078125 346.65691406 231.3115625 347.75132812 230.828125 348.87890625 C214.47157875 385.5892446 190.21411613 419.8321301 158.25 444.5625 C156.74373047 445.75939453 156.74373047 445.75939453 155.20703125 446.98046875 C125.25500374 470.62801814 90.51267587 487.17629653 53.25 495.5625 C51.90542725 495.87791748 51.90542725 495.87791748 50.53369141 496.19970703 C33.58636331 499.98074843 16.47098234 499.98119171 -0.8125 500.0625 C-2.5145459 500.07830109 -2.5145459 500.07830109 -4.25097656 500.09442139 C-25.37195641 500.24575385 -46.44574747 498.39152128 -66.75 492.25 C-67.78012207 491.94787598 -68.81024414 491.64575195 -69.87158203 491.33447266 C-93.08059485 484.37863431 -116.8015661 474.40014782 -136.75 460.5625 C-137.42256836 460.09908203 -138.09513672 459.63566406 -138.78808594 459.15820312 C-148.71625328 452.2791846 -158.13901006 444.9863679 -167.16259766 436.95898438 C-168.90218203 435.42862101 -170.67097009 433.93592424 -172.44140625 432.44140625 C-174.82479757 430.40239575 -176.9906081 428.35539465 -179 425.9375 C-181.87798998 422.54031807 -184.88035775 419.29947415 -187.9375 416.0625 C-196.61224417 406.71226961 -204.00382186 396.31077963 -211.125 385.75 C-211.505354 385.18885498 -211.88570801 384.62770996 -212.27758789 384.04956055 C-238.54212292 344.35241208 -250.70155605 297.34535066 -250.25 250.125 C-250.24412872 248.97028198 -250.23825745 247.81556396 -250.23220825 246.62585449 C-250.13136261 229.68085871 -249.70715477 213.11845526 -245.75 196.5625 C-245.49798828 195.50337402 -245.24597656 194.44424805 -244.98632812 193.35302734 C-241.62625551 179.69719267 -237.31685638 166.47309749 -231.75 153.5625 C-231.17910645 152.22977051 -231.17910645 152.22977051 -230.59667969 150.87011719 C-225.71675741 139.57148857 -220.62498204 128.79991867 -213.75 118.5625 C-213.26273438 117.80710937 -212.77546875 117.05171875 -212.2734375 116.2734375 C-208.03395885 109.76027198 -203.46145942 103.46768738 -198.91015625 97.17041016 C-197.88266312 95.74636349 -196.86264498 94.31692994 -195.84375 92.88671875 C-195.3178125 92.16097656 -194.791875 91.43523437 -194.25 90.6875 C-193.8065625 90.07132812 -193.363125 89.45515625 -192.90625 88.8203125 C-192.5246875 88.40523438 -192.143125 87.99015625 -191.75 87.5625 C-191.09 87.5625 -190.43 87.5625 -189.75 87.5625 C-189.48832031 86.985 -189.22664063 86.4075 -188.95703125 85.8125 C-185.86282925 80.04466714 -180.89849993 75.49161837 -175.75 71.5625 C-174.07628025 69.90291639 -172.41062151 68.23518998 -170.75 66.5625 C-162.30282995 58.37053146 -153.3770098 51.30919151 -143.75 44.5625 C-142.97269531 44.01078125 -142.19539063 43.4590625 -141.39453125 42.890625 C-139.21248299 41.38809273 -136.99716091 39.9661005 -134.75 38.5625 C-134.21342773 38.22460449 -133.67685547 37.88670898 -133.12402344 37.53857422 C-115.26174821 26.38304162 -95.99416146 16.54443134 -75.75 10.5625 C-74.91388184 10.31306641 -74.07776367 10.06363281 -73.21630859 9.80664062 C-49.07502169 2.74600066 -25.11427808 -0.19484926 0 0 Z " fill="#E7E0EE" transform="translate(249.75,-0.5625)"/>
<path d="M0 0 C9.70909952 8.09428047 16.22182633 17.51597502 17.75 30.3125 C18.3708728 41.20307789 18.46135657 51.93355479 14.75 62.3125 C14.48316406 63.08335938 14.21632813 63.85421875 13.94140625 64.6484375 C9.45806288 76.00624072 1.90356944 83.79853725 -8.25 90.3125 C-7.26 91.7975 -7.26 91.7975 -6.25 93.3125 C-5.66162754 95.02633721 -5.12280046 96.75769841 -4.625 98.5 C-4.36460937 99.40105469 -4.10421875 100.30210937 -3.8359375 101.23046875 C-3.64257812 101.91753906 -3.44921875 102.60460937 -3.25 103.3125 C-2.59 102.9825 -1.93 102.6525 -1.25 102.3125 C6.52277833 101.6399481 14.08841358 101.15696251 20.81640625 105.62109375 C26.61803271 110.69605185 31.21755258 116.72224273 32.12109375 124.51171875 C32.29350562 133.56841287 31.18209762 140.11547182 25.2109375 147.1171875 C20.77265701 151.34512295 15.4810386 153.35218499 9.75 155.3125 C9.98783203 156.32763672 9.98783203 156.32763672 10.23046875 157.36328125 C12.65545494 171.12918032 10.97337656 189.28066538 3.296875 201.29296875 C-3.04773388 209.57620812 -8.56799327 216.76117122 -19.25 218.3125 C-18.94255859 219.85357422 -18.94255859 219.85357422 -18.62890625 221.42578125 C-17.07280741 229.3763987 -15.74778476 237.21062397 -15.25 245.3125 C-14.3734375 245.3640625 -13.496875 245.415625 -12.59375 245.46875 C17.69075098 248.17712001 46.95450074 263.00268072 70.75 281.3125 C71.60464844 281.9621875 72.45929688 282.611875 73.33984375 283.28125 C102.37009688 306.13031854 123.23783389 337.9726049 133.75 373.3125 C125.77815039 381.49382887 117.80112975 389.30971645 108.75 396.3125 C107.24373047 397.50939453 107.24373047 397.50939453 105.70703125 398.73046875 C75.75500374 422.37801814 41.01267587 438.92629653 3.75 447.3125 C2.40542725 447.62791748 2.40542725 447.62791748 1.03369141 447.94970703 C-15.91363669 451.73074843 -33.02901766 451.73119171 -50.3125 451.8125 C-52.0145459 451.82830109 -52.0145459 451.82830109 -53.75097656 451.84442139 C-74.87195641 451.99575385 -95.94574747 450.14152128 -116.25 444 C-117.28012207 443.69787598 -118.31024414 443.39575195 -119.37158203 443.08447266 C-142.58059485 436.12863431 -166.3015661 426.15014782 -186.25 412.3125 C-186.92256836 411.84908203 -187.59513672 411.38566406 -188.28808594 410.90820312 C-198.21625328 404.0291846 -207.63901006 396.7363679 -216.66259766 388.70898438 C-218.40218203 387.17862101 -220.17097009 385.68592424 -221.94140625 384.19140625 C-224.32479757 382.15239575 -226.4906081 380.10539465 -228.5 377.6875 C-230.98139932 374.76200237 -233.53142464 371.92641319 -236.15600586 369.12841797 C-242.32940799 362.52959653 -247.8606508 355.5606486 -253.25 348.3125 C-250.38528049 342.97558265 -247.11633352 338.40226729 -243.25 333.75 C-242.67096924 333.04875 -242.09193848 332.3475 -241.49536133 331.625 C-240.30765804 330.19035172 -239.11732582 328.75787562 -237.92431641 327.32763672 C-236.45933691 325.56444909 -235.01386417 323.78775532 -233.57421875 322.00390625 C-226.92219921 313.88238492 -219.58459387 306.43605951 -212.1875 299 C-211.68052582 298.48775879 -211.17355164 297.97551758 -210.6512146 297.44775391 C-195.92197407 282.6003222 -179.64317796 270.24851322 -161.25 260.3125 C-160.51265625 259.90257812 -159.7753125 259.49265625 -159.015625 259.0703125 C-149.23341761 253.85583005 -138.46236017 251.4950377 -127.625 249.625 C-125.80307129 249.30366089 -125.80307129 249.30366089 -123.94433594 248.97583008 C-114.37974356 247.35618354 -104.94402169 246.45355058 -95.25 246.3125 C-95.67924903 234.26037378 -96.30939528 222.27534733 -97.58935547 210.28051758 C-98.08099997 205.59037773 -98.34521575 201.02885326 -98.25 196.3125 C-98.94996094 196.6321875 -99.64992187 196.951875 -100.37109375 197.28125 C-107.82006983 199.94953994 -115.47928606 199.12039686 -122.5625 195.8125 C-132.35087742 190.29846681 -138.79684725 182.64604467 -142.359375 171.99609375 C-144.44517031 163.36931755 -144.56697987 154.07961903 -140.41015625 146.09375 C-139.25 144.3125 -139.25 144.3125 -136.9375 141.6875 C-134.9362628 139.35652153 -134.9362628 139.35652153 -135.25 136.0625 C-136.25555397 132.29167261 -137.59785057 129.01577495 -139.3125 125.5234375 C-142.38489995 118.27769428 -142.94620251 107.0347278 -140.2734375 99.59375 C-137.10567415 94.3854029 -133.30484148 91.37134258 -127.4375 89.625 C-126.62667969 89.37363281 -125.81585938 89.12226563 -124.98046875 88.86328125 C-121.69289197 88.20012199 -118.59488223 88.22610083 -115.25 88.3125 C-115.27356567 87.46655273 -115.27356567 87.46655273 -115.29760742 86.60351562 C-115.36061574 84.00661565 -115.39919598 81.40987725 -115.4375 78.8125 C-115.46263672 77.925625 -115.48777344 77.03875 -115.51367188 76.125 C-115.61366581 67.05888288 -113.3866453 60.84621994 -107.15625 54.140625 C-101.02637753 48.26197681 -95.73096097 45.92271744 -87.2578125 45.9453125 C-82.34690749 46.54482558 -78.43144398 48.77279433 -74.25 51.3125 C-74.28480469 50.56226563 -74.31960937 49.81203125 -74.35546875 49.0390625 C-74.79186362 32.5391802 -67.51583013 18.25183085 -56.25 6.3125 C-41.43569398 -7.93392429 -17.56366332 -12.26722788 0 0 Z " fill="#68B6D8" transform="translate(299.25,47.6875)"/>
<path d="M0 0 C9.70909952 8.09428047 16.22182633 17.51597502 17.75 30.3125 C18.3708728 41.20307789 18.46135657 51.93355479 14.75 62.3125 C14.48316406 63.08335938 14.21632813 63.85421875 13.94140625 64.6484375 C9.45806288 76.00624072 1.90356944 83.79853725 -8.25 90.3125 C-7.26 91.7975 -7.26 91.7975 -6.25 93.3125 C-5.66162754 95.02633721 -5.12280046 96.75769841 -4.625 98.5 C-4.36460937 99.40105469 -4.10421875 100.30210937 -3.8359375 101.23046875 C-3.64257812 101.91753906 -3.44921875 102.60460937 -3.25 103.3125 C-2.59 102.9825 -1.93 102.6525 -1.25 102.3125 C6.52277833 101.6399481 14.08841358 101.15696251 20.81640625 105.62109375 C26.61803271 110.69605185 31.21755258 116.72224273 32.12109375 124.51171875 C32.29350562 133.56841287 31.18209762 140.11547182 25.2109375 147.1171875 C20.77265701 151.34512295 15.4810386 153.35218499 9.75 155.3125 C9.90855469 155.98925781 10.06710937 156.66601562 10.23046875 157.36328125 C12.65545494 171.12918032 10.97337656 189.28066538 3.296875 201.29296875 C-3.04773388 209.57620812 -8.56799327 216.76117122 -19.25 218.3125 C-19.06824219 219.24707031 -18.88648438 220.18164062 -18.69921875 221.14453125 C-17.04709473 229.74444661 -15.56715694 238.35662036 -14.25268555 247.01489258 C-14.13578369 247.77825928 -14.01888184 248.54162598 -13.8984375 249.328125 C-13.79708496 250.00133789 -13.69573242 250.67455078 -13.59130859 251.36816406 C-13.26772556 253.35165381 -13.26772556 253.35165381 -12.71557617 255.42773438 C-11.90742323 258.69933411 -12.19407123 261.95677395 -12.25 265.3125 C-27.89037791 273.52448199 -47.94154433 275.28854347 -65 270.3125 C-73.51832027 267.62139387 -81.44396346 263.61121598 -89.25 259.3125 C-90.5659314 258.71501953 -90.5659314 258.71501953 -91.90844727 258.10546875 C-94.25 256.3125 -94.25 256.3125 -94.96948242 253.36767578 C-95.01435791 252.1764209 -95.0592334 250.98516602 -95.10546875 249.7578125 C-95.13740829 249.10806961 -95.16934784 248.45832672 -95.20225525 247.78889465 C-95.30224674 245.67209629 -95.36963426 243.55554873 -95.4375 241.4375 C-95.53370319 239.25259753 -95.63839069 237.06820431 -95.74346924 234.88371277 C-95.81293077 233.42730947 -95.8796218 231.97077139 -95.94354248 230.51411438 C-96.25418969 223.5721959 -96.89882061 216.68008321 -97.64135742 209.77197266 C-98.114325 205.25271722 -98.33450054 200.85742203 -98.25 196.3125 C-98.94996094 196.6321875 -99.64992187 196.951875 -100.37109375 197.28125 C-107.82006983 199.94953994 -115.47928606 199.12039686 -122.5625 195.8125 C-132.35087742 190.29846681 -138.79684725 182.64604467 -142.359375 171.99609375 C-144.44517031 163.36931755 -144.56697987 154.07961903 -140.41015625 146.09375 C-139.25 144.3125 -139.25 144.3125 -136.9375 141.6875 C-134.9362628 139.35652153 -134.9362628 139.35652153 -135.25 136.0625 C-136.25555397 132.29167261 -137.59785057 129.01577495 -139.3125 125.5234375 C-142.38489995 118.27769428 -142.94620251 107.0347278 -140.2734375 99.59375 C-137.10567415 94.3854029 -133.30484148 91.37134258 -127.4375 89.625 C-126.62667969 89.37363281 -125.81585938 89.12226563 -124.98046875 88.86328125 C-121.69289197 88.20012199 -118.59488223 88.22610083 -115.25 88.3125 C-115.26571045 87.74853516 -115.2814209 87.18457031 -115.29760742 86.60351562 C-115.36061574 84.00661565 -115.39919598 81.40987725 -115.4375 78.8125 C-115.46263672 77.925625 -115.48777344 77.03875 -115.51367188 76.125 C-115.61366581 67.05888288 -113.3866453 60.84621994 -107.15625 54.140625 C-101.02637753 48.26197681 -95.73096097 45.92271744 -87.2578125 45.9453125 C-82.34690749 46.54482558 -78.43144398 48.77279433 -74.25 51.3125 C-74.28480469 50.56226563 -74.31960937 49.81203125 -74.35546875 49.0390625 C-74.79186362 32.5391802 -67.51583013 18.25183085 -56.25 6.3125 C-41.43569398 -7.93392429 -17.56366332 -12.26722788 0 0 Z " fill="#F28462" transform="translate(299.25,47.6875)"/>
<path d="M0 0 C9.70909952 8.09428047 16.22182633 17.51597502 17.75 30.3125 C18.3708728 41.20307789 18.46135657 51.93355479 14.75 62.3125 C14.48316406 63.08335938 14.21632813 63.85421875 13.94140625 64.6484375 C9.8197628 75.08993425 2.79152496 84.08662644 -7.25 89.3125 C-8.24 89.3125 -9.23 89.3125 -10.25 89.3125 C-10.683125 88.0440625 -10.683125 88.0440625 -11.125 86.75 C-13.55837159 81.78875696 -18.64632145 79.06107782 -23.25 76.3125 C-30.9359736 73.7505088 -38.601108 74.54539604 -45.8125 78.0625 C-49.52958421 80.05973928 -52.49968007 82.0901572 -55.25 85.3125 C-56.05315654 88.45731791 -56.05315654 88.45731791 -56.25 91.3125 C-55.0125 91.27125 -53.775 91.23 -52.5 91.1875 C-49.23362038 91.17591709 -47.0353053 91.4556298 -44.25 93.3125 C-44.745 95.2925 -44.745 95.2925 -45.25 97.3125 C-48.55 96.9825 -51.85 96.6525 -55.25 96.3125 C-55.25 99.6125 -55.25 102.9125 -55.25 106.3125 C-56.01183594 106.43625 -56.77367187 106.56 -57.55859375 106.6875 C-66.46006831 108.46557232 -72.51305675 111.75898712 -77.65625 119.40234375 C-79.7316189 123.26401231 -80.81080572 126.92055716 -81.25 131.3125 C-83.04236067 130.83593588 -84.83386897 130.35616502 -86.625 129.875 C-87.62273437 129.60816406 -88.62046875 129.34132812 -89.6484375 129.06640625 C-92.25 128.3125 -92.25 128.3125 -94.25 127.3125 C-97.01367582 127.16090597 -99.73532157 127.08108607 -102.5 127.0625 C-103.25152344 127.041875 -104.00304687 127.02125 -104.77734375 127 C-109.68925014 126.96571095 -112.97791683 127.63350721 -117.25 130.3125 C-118.1471875 131.3025 -118.1471875 131.3025 -119.0625 132.3125 C-122.25739883 135.23355036 -126.01452251 136.51461956 -130.25 137.3125 C-132.34375 137.19921875 -132.34375 137.19921875 -134.25 136.3125 C-141.30479602 126.6954294 -142.70473216 113.85088841 -141.25 102.3125 C-139.42003148 97.33614292 -136.64890093 94.21819603 -132.25 91.3125 C-129.91796875 90.36328125 -129.91796875 90.36328125 -127.4375 89.625 C-126.62667969 89.37363281 -125.81585938 89.12226563 -124.98046875 88.86328125 C-121.69289197 88.20012199 -118.59488223 88.22610083 -115.25 88.3125 C-115.26571045 87.74853516 -115.2814209 87.18457031 -115.29760742 86.60351562 C-115.36061574 84.00661565 -115.39919598 81.40987725 -115.4375 78.8125 C-115.46263672 77.925625 -115.48777344 77.03875 -115.51367188 76.125 C-115.61366581 67.05888288 -113.3866453 60.84621994 -107.15625 54.140625 C-101.02637753 48.26197681 -95.73096097 45.92271744 -87.2578125 45.9453125 C-82.34690749 46.54482558 -78.43144398 48.77279433 -74.25 51.3125 C-74.28480469 50.56226563 -74.31960937 49.81203125 -74.35546875 49.0390625 C-74.79186362 32.5391802 -67.51583013 18.25183085 -56.25 6.3125 C-41.43569398 -7.93392429 -17.56366332 -12.26722788 0 0 Z " fill="#010101" transform="translate(299.25,47.6875)"/>
<path d="M0 0 C3.44705858 2.05268451 6.28001173 4.23258104 8.9375 7.25 C9.32249891 8.90549531 9.66543135 10.5722433 9.9375 12.25 C10.9275 12.745 10.9275 12.745 11.9375 13.25 C13.84139849 16.10584773 14.63212177 18.1811762 15.5625 21.4375 C15.95308594 22.78908203 15.95308594 22.78908203 16.3515625 24.16796875 C16.54492188 24.85503906 16.73828125 25.54210937 16.9375 26.25 C17.9275 25.755 17.9275 25.755 18.9375 25.25 C26.71027833 24.5774481 34.27591358 24.09446251 41.00390625 28.55859375 C46.80553271 33.63355185 51.40505258 39.65974273 52.30859375 47.44921875 C52.48041411 56.47484125 51.43779107 63.21523255 45.29296875 70.08984375 C37.99578673 76.82697116 31.3164065 77.88193032 21.5390625 77.66015625 C14.1003044 76.81300918 9.73178622 72.70656447 5.19140625 67.015625 C2.32652438 62.98158573 0.9375 60.225248 0.9375 55.25 C-3.5175 55.745 -3.5175 55.745 -8.0625 56.25 C-8.10375 57.384375 -8.145 58.51875 -8.1875 59.6875 C-9.1537187 67.26963289 -14.35709611 73.41769563 -20.2265625 78.03125 C-26.70849924 82.33415269 -33.39233038 83.19233512 -41.0625 82.25 C-48.80536525 80.37672615 -53.4320219 75.51092814 -58.0625 69.25 C-60.08396938 65.83877042 -61.0625 64.1802278 -61.0625 60.25 C-61.78695312 60.05664062 -62.51140625 59.86328125 -63.2578125 59.6640625 C-64.22460938 59.40367187 -65.19140625 59.14328125 -66.1875 58.875 C-67.19941406 58.60300781 -68.21132812 58.33101562 -69.25390625 58.05078125 C-72.0625 57.25 -72.0625 57.25 -75.125 56.0625 C-82.2702107 54.08616513 -88.58925793 54.74366055 -95.0625 58.25 C-95.7225 58.91 -96.3825 59.57 -97.0625 60.25 C-98.3825 60.25 -99.7025 60.25 -101.0625 60.25 C-101.5 58.0625 -101.5 58.0625 -101.0625 55.25 C-94.53944707 48.91983304 -87.23171157 48.75854928 -78.60546875 48.8828125 C-72.20758812 49.19965992 -66.79891163 51.45661695 -61.0625 54.25 C-61.05992187 53.693125 -61.05734375 53.13625 -61.0546875 52.5625 C-60.62808261 44.14416348 -56.6072129 39.42270318 -50.5625 33.875 C-45.70899307 29.94952626 -41.2664826 28.95457226 -35.0625 29.25 C-35.0625 25.95 -35.0625 22.65 -35.0625 19.25 C-31.7625 19.25 -28.4625 19.25 -25.0625 19.25 C-25.0625 18.26 -25.0625 17.27 -25.0625 16.25 C-28.6925 15.59 -32.3225 14.93 -36.0625 14.25 C-36.5625 11.6875 -36.5625 11.6875 -36.0625 8.25 C-27.22799612 -2.70478482 -12.60156953 -6.62886301 0 0 Z " fill="#F9F4F3" transform="translate(279.0625,124.75)"/>
<path d="M0 0 C3.44705858 2.05268451 6.28001173 4.23258104 8.9375 7.25 C9.32249891 8.90549531 9.66543135 10.5722433 9.9375 12.25 C10.5975 12.58 11.2575 12.91 11.9375 13.25 C14.92229194 17.72718792 15.9375 21.88824093 15.9375 27.25 C14.328125 28.77734375 14.328125 28.77734375 12.1875 30.1875 C4.42803426 35.72997553 2.86485051 41.09508508 0.9375 50.25 C-2.3625 50.25 -5.6625 50.25 -9.0625 50.25 C-9.4028125 49.45335937 -9.743125 48.65671875 -10.09375 47.8359375 C-13.25244621 40.93048993 -16.01033457 35.56661246 -23.0625 32.25 C-27.02087073 30.98079268 -30.98031313 30.02561551 -35.0625 29.25 C-35.0625 25.95 -35.0625 22.65 -35.0625 19.25 C-31.7625 19.25 -28.4625 19.25 -25.0625 19.25 C-25.0625 18.26 -25.0625 17.27 -25.0625 16.25 C-28.6925 15.59 -32.3225 14.93 -36.0625 14.25 C-36.5625 11.6875 -36.5625 11.6875 -36.0625 8.25 C-27.22799612 -2.70478482 -12.60156953 -6.62886301 0 0 Z " fill="#EE8261" transform="translate(279.0625,124.75)"/>
<path d="M0 0 C4.44647438 2.9806037 7.90841279 5.57643973 9.3125 10.9375 C9.4671875 12.608125 9.4671875 12.608125 9.625 14.3125 C9.82996094 15.59060547 9.82996094 15.59060547 10.0390625 16.89453125 C11.19297612 25.16424551 11.19297612 25.16424551 9.0625 29.1875 C5.29243057 34.02092235 1.54984039 37.36038496 -4.375 39.3125 C-11.26165138 40.15018487 -17.93585349 40.3758499 -23.65234375 36.04296875 C-28.79898568 30.87298605 -31.71225782 25.60431523 -32.125 18.25 C-31.72530965 10.67538043 -28.1616431 5.96320929 -22.8125 0.875 C-15.31145864 -3.93335985 -7.82630289 -4.49694509 0 0 Z " fill="#EF8463" transform="translate(254.375,161.6875)"/>
<path d="M0 0 C4.25155408 4.36506644 5.3458852 8.46273602 5.5625 14.5 C5.28552056 20.96784418 4.07192681 25.79665386 -0.4609375 30.5234375 C-6.14551301 35.51547589 -10.52484117 36.52498806 -17.95703125 36.37109375 C-24.07245675 35.62531015 -28.1859145 32.46714195 -32 27.75 C-35.63407436 21.28530309 -34.87857027 13.1129049 -34 6 C-32.73161163 2.66595058 -31.65807266 1.5399361 -29 -1 C-28.21625 -1.78375 -27.4325 -2.5675 -26.625 -3.375 C-18.19846021 -8.59142939 -7.15717252 -6.2080692 0 0 Z " fill="#E8E0EE" transform="translate(320,161)"/>
<path d="M0 0 C3.42935256 1.0551854 6.60510984 2.29002509 9.8125 3.875 C26.38003793 11.11139588 43.25356756 10.47087177 61 10 C61.50217624 11.57880738 61.99680395 13.16001691 62.48828125 14.7421875 C62.76454346 15.62245605 63.04080566 16.50272461 63.32543945 17.40966797 C64.19837077 20.7617495 64.22442207 23.55886164 64 27 C44.93548087 27.99179579 24.0519135 23.61087655 9.45654297 10.62695312 C6.16800943 7.54401624 3.00524144 4.35982505 0 1 C0 0.67 0 0.34 0 0 Z " fill="#0C0705" transform="translate(218,257)"/>
<path d="M0 0 C0.95996344 3.02031772 1.91767058 6.04134646 2.875 9.0625 C3.14441406 9.91005859 3.41382813 10.75761719 3.69140625 11.63085938 C7.8190819 24.66827393 7.8190819 24.66827393 9.125 31.1875 C9.29257812 32.00605469 9.46015625 32.82460937 9.6328125 33.66796875 C10 36 10 36 10 40 C4.01363087 40.62358012 -0.26065372 40.17624409 -5.203125 36.578125 C-9.78168274 32.55695689 -11.91739301 29.1014881 -12.4765625 22.94921875 C-13.1043102 10.48979151 -13.1043102 10.48979151 -9.75 5.625 C-3.85714286 0 -3.85714286 0 0 0 Z " fill="#F08667" transform="translate(298,157)"/>
<path d="M0 0 C3.8731794 0.47190462 6.61292125 2.57457064 9.8125 4.6875 C16.85899069 9.17668241 24.1453259 12.21397747 32 15 C32.88816406 15.34160156 33.77632812 15.68320312 34.69140625 16.03515625 C49.29248095 20.94788091 69.3383977 19.39143921 83 12.8125 C84.03125 12.26207031 85.0625 11.71164062 86.125 11.14453125 C89.31875377 9.87310482 90.77358945 9.973954 94 11 C93.70288086 12.88427734 93.70288086 12.88427734 93 15 C90.50572221 16.42272885 88.19914735 17.54256167 85.5625 18.625 C84.88767578 18.9240625 84.21285156 19.223125 83.51757812 19.53125 C67.76351317 26.23006219 47.11303743 26.49440938 31 21 C30.31631348 20.76893555 29.63262695 20.53787109 28.92822266 20.29980469 C18.95178421 16.861145 8.09227592 12.98318226 0 6 C-0.90234375 3.3203125 -0.90234375 3.3203125 -1 1 C-0.67 0.67 -0.34 0.34 0 0 Z " fill="#F5F7F8" transform="translate(200,301)"/>
<path d="M0 0 C6.18671465 0.93232092 10.92634179 4.12286401 16.25 7.25 C17.26835937 7.82363281 18.28671875 8.39726562 19.3359375 8.98828125 C20.30273438 9.55417969 21.26953125 10.12007812 22.265625 10.703125 C23.15024414 11.21520508 24.03486328 11.72728516 24.94628906 12.25488281 C27.46227982 14.39281695 27.71281096 15.77221507 28 19 C26.3125 19.6875 26.3125 19.6875 24 20 C23.195625 19.505 22.39125 19.01 21.5625 18.5 C19.14316412 16.76915642 19.14316412 16.76915642 16.5625 17.125 C13.85972752 17.98006472 13.85972752 17.98006472 10.9375 19.5625 C8 21 8 21 4 21 C4 19.35 4 17.7 4 16 C9.75 13 9.75 13 12 13 C12 12.34 12 11.68 12 11 C11.319375 10.7525 10.63875 10.505 9.9375 10.25 C6.43134917 8.75802092 3.28379632 6.93164489 0 5 C0 3.35 0 1.7 0 0 Z " fill="#100906" transform="translate(170,200)"/>
<path d="M0 0 C1.65 0 3.3 0 5 0 C8.89489726 6.607415 9.38572925 12.9457995 9.375 20.4375 C9.37693359 21.77022949 9.37693359 21.77022949 9.37890625 23.12988281 C9.27012738 29.59480893 9.27012738 29.59480893 7 33 C5.68 33 4.36 33 3 33 C3.01571045 32.42668945 3.0314209 31.85337891 3.04760742 31.26269531 C3.45293494 15.39324994 3.45293494 15.39324994 0 0 Z " fill="#130D0B" transform="translate(275,180)"/>
<path d="M0 0 C-6.19715441 4.75115171 -11.2686385 4.52954531 -19 4 C-22.19286658 3.24976359 -24.94983309 2.24074586 -28 1 C-27.25 -0.9375 -27.25 -0.9375 -26 -3 C-17.37674789 -6.41641556 -8.14825877 -3.1360996 0 0 Z " fill="#1C1512" transform="translate(213,183)"/>
<path d="M0 0 C1.6875 0.125 1.6875 0.125 4 1 C5.68732277 2.98260426 7.35366057 4.9832342 9 7 C12.17653815 9.03712772 15.02234767 9.35873912 18.75 9.625 C19.73484375 9.69976562 20.7196875 9.77453125 21.734375 9.8515625 C22.48203125 9.90054688 23.2296875 9.94953125 24 10 C24.5625 11.9375 24.5625 11.9375 25 14 C23.16241791 15.83758209 20.41168569 15.30114371 17.9375 15.375 C9.92679846 15.31351435 6.01965654 12.94600638 0.4375 7.5 C-1 5 -1 5 -0.75 2.1875 C-0.5025 1.465625 -0.255 0.74375 0 0 Z " fill="#140A08" transform="translate(249,213)"/>
<path d="M0 0 C-2.78135964 8.90035086 -9.04766362 14.58017515 -17 19 C-17.33 19 -17.66 19 -18 19 C-18.57161264 15.16202944 -18.60069234 13.05338802 -16.65234375 9.63671875 C-12.194701 3.65074134 -7.94781376 -0.70127768 0 0 Z " fill="#120E0D" transform="translate(242,160)"/>
<path d="M0 0 C3.0625 1.75 3.0625 1.75 4 3.9375 C4.020625 4.535625 4.04125 5.13375 4.0625 5.75 C-0.46867783 7.00866051 -0.46867783 7.00866051 -2.75 5.75 C-6.97412096 3.81897328 -11.6658836 5.32612787 -15.9375 6.75 C-16.5975 6.42 -17.2575 6.09 -17.9375 5.75 C-17.9375 4.43 -17.9375 3.11 -17.9375 1.75 C-11.93120629 -1.85377623 -6.48756743 -2.41954359 0 0 Z " fill="#160D0A" transform="translate(288.9375,138.25)"/>
<path d="M0 0 C1.65 0 3.3 0 5 0 C5 6.27 5 12.54 5 19 C3.35 18.67 1.7 18.34 0 18 C0 12.06 0 6.12 0 0 Z " fill="#110906" transform="translate(247,164)"/>
<path d="M0 0 C0 5.61 0 11.22 0 17 C-1.65 17.33 -3.3 17.66 -5 18 C-5.0809723 15.56183415 -5.14046972 13.12635616 -5.1875 10.6875 C-5.21263672 9.99720703 -5.23777344 9.30691406 -5.26367188 8.59570312 C-5.33777767 3.4824036 -5.33777767 3.4824036 -3.61328125 1.01953125 C-2 0 -2 0 0 0 Z " fill="#0D0908" transform="translate(292,162)"/>
<path d="M0 0 C4.75 0.75 4.75 0.75 7 3 C7 3.99 7 4.98 7 6 C4.69 6 2.38 6 0 6 C0 4.02 0 2.04 0 0 Z " fill="#1D1310" transform="translate(270,169)"/>
<path d="M0 0 C0.66 0.33 1.32 0.66 2 1 C-2.62 5.62 -7.24 10.24 -12 15 C-12 11.11566834 -10.82920314 10.32394504 -8.25 7.5 C-7.55390625 6.7265625 -6.8578125 5.953125 -6.140625 5.15625 C-4.19891408 3.20036601 -2.25069252 1.58156772 0 0 Z " fill="#262527" transform="translate(250,48)"/>
</svg>
